<?xml version="1.0" encoding="UTF-8"?>
<svg xmlns="http://www.w3.org/2000/svg" version="1.1" xmlns:xlink="http://www.w3.org/1999/xlink" viewBox="0 0 640 640">
  <!-- Generator: Adobe Illustrator 29.1.0, SVG Export Plug-In . SVG Version: 2.1.0 Build 142)  -->
  <defs>
    <style>
      .st0 {
        mask: url(#mask);
      }

      .st1 {
        fill: url(#Gradiente_sem_nome);
      }

      .st2 {
        isolation: isolate;
      }

      .st3 {
        mix-blend-mode: multiply;
      }

      .st4 {
        filter: url(#luminosity-noclip);
      }
    </style>
    <linearGradient id="Gradiente_sem_nome" data-name="Gradiente sem nome" x1="186.6" y1="125.7" x2="453.3" y2="392.4" gradientUnits="userSpaceOnUse">
      <stop offset="0" stop-color="#fff"/>
      <stop offset="1" stop-color="#000"/>
    </linearGradient>
    <filter id="luminosity-noclip" x="61" y="138" width="517" height="364" color-interpolation-filters="sRGB" filterUnits="userSpaceOnUse">
      <feFlood flood-color="#fff" result="bg"/>
      <feBlend in="SourceGraphic" in2="bg"/>
    </filter>
    <mask id="mask" x="61" y="138" width="517" height="364" maskUnits="userSpaceOnUse">
      <g class="st4">
        <image width="517" height="364" transform="translate(61 138)" xlink:href="wifi-solid-1.png"/>
      </g>
    </mask>
  </defs>
  <g class="st2">
    <g id="Camada_1">
      <g>
        <path class="st1" d="M107.3,277.5c55.2-53,130.1-85.6,212.7-85.6s157.5,32.6,212.7,85.6c10.2,9.8,26.4,9.4,36.2-.7s9.4-26.4-.7-36.2c-64.3-61.9-151.8-99.9-248.2-99.9s-183.8,38-248.3,99.8c-10.2,9.8-10.5,26-.7,36.3,9.8,10.2,26,10.6,36.2.7h0ZM320,320c45.5,0,86.9,16.9,118.6,44.8,10.6,9.4,26.8,8.3,36.2-2.2,9.4-10.6,8.3-26.8-2.2-36.2-40.7-35.9-94.1-57.6-152.5-57.6s-111.9,21.8-152.5,57.6c-10.6,9.4-11.6,25.5-2.2,36.2s25.5,11.6,36.2,2.2c31.6-27.9,73.1-44.8,118.6-44.8h0ZM371.2,448c0-28.3-22.9-51.2-51.2-51.2s-51.2,22.9-51.2,51.2,22.9,51.2,51.2,51.2,51.2-22.9,51.2-51.2Z"/>
        <g class="st0">
          <g class="st3">
            <path d="M107.3,277.5c55.2-53,130.1-85.6,212.7-85.6s157.5,32.6,212.7,85.6c10.2,9.8,26.4,9.4,36.2-.7s9.4-26.4-.7-36.2c-64.3-61.9-151.8-99.9-248.2-99.9s-183.8,38-248.3,99.8c-10.2,9.8-10.5,26-.7,36.3,9.8,10.2,26,10.6,36.2.7h0ZM320,320c45.5,0,86.9,16.9,118.6,44.8,10.6,9.4,26.8,8.3,36.2-2.2,9.4-10.6,8.3-26.8-2.2-36.2-40.7-35.9-94.1-57.6-152.5-57.6s-111.9,21.8-152.5,57.6c-10.6,9.4-11.6,25.5-2.2,36.2s25.5,11.6,36.2,2.2c31.6-27.9,73.1-44.8,118.6-44.8h0ZM371.2,448c0-28.3-22.9-51.2-51.2-51.2s-51.2,22.9-51.2,51.2,22.9,51.2,51.2,51.2,51.2-22.9,51.2-51.2Z"/>
          </g>
        </g>
      </g>
    </g>
  </g>
</svg>